<?xml version="1.0" encoding="UTF-8" standalone="no"?>
<!-- Created with Inkscape (http://www.inkscape.org/) -->

<svg
   width="217.86679"
   height="22.800007"
   viewBox="0 0 57.643921 6.0325018"
   version="1.1"
   id="svg1"
   xmlns="http://www.w3.org/2000/svg"
   xmlns:svg="http://www.w3.org/2000/svg">
  <defs
     id="defs1" />
  <g
     id="layer1"
     transform="translate(-0.72732616,-0.0264267)">
    <path
       style="-inkscape-font-specification:Y224;stroke-width:0.264583"
       d="M 0.72732616,6.0589285 V 5.3886505 H 6.08955 V 3.3778166 H 0.72732616 V 0.0264267 H 6.759828 V 0.69670467 H 1.3976041 V 2.7075386 H 6.759828 V 6.0589285 Z M 14.132888,0.0264267 V 0.69670467 H 8.7706644 V 5.3886505 h 5.3622236 v 0.670278 H 8.1003864 V 0.0264267 Z M 20.83567,0.69670467 H 16.143725 V 2.7075386 H 20.83567 Z M 21.505948,0.0264267 V 6.0589285 H 20.83567 V 3.3778166 H 16.143725 V 6.0589285 H 15.473447 V 0.0264267 Z m 2.010837,0.67027797 V 6.0589285 H 22.846507 V 0.0264267 h 6.032502 v 0.67027797 z m 7.37306,4.69194583 h 5.362224 v 0.670278 H 30.219567 V 0.0264267 h 0.670278 z M 43.625131,0.0264267 V 0.69670467 H 38.262907 V 2.7075386 h 5.362224 v 0.670278 h -5.362224 v 2.0108339 h 5.362224 v 0.670278 H 37.592629 V 0.0264267 Z m 4.691946,0.67027797 V 6.0589285 H 47.646799 V 0.69670467 H 44.965688 V 0.0264267 h 6.032501 v 0.67027797 z m 4.691947,4.69194583 h 5.362224 v 0.670278 H 52.338746 V 2.7075386 H 57.70097 V 0.69670467 H 52.338746 V 0.0264267 h 6.032502 v 3.3513899 h -5.362224 z"
       id="text1"
       aria-label="scarlet2" />
  </g>
</svg>
